<?xml version="1.0" encoding="UTF-8" standalone="no"?>
<!-- Created with Inkscape (http://www.inkscape.org/) -->

<svg
   width="16.933334mm"
   height="16.933332mm"
   viewBox="0 0 16.933334 16.933332"
   version="1.1"
   id="svg253"
   xmlns="http://www.w3.org/2000/svg"
   xmlns:svg="http://www.w3.org/2000/svg">
  <defs
     id="defs250" />
  <g
     id="layer1">
    <ellipse
       style="fill:#00c537;fill-opacity:1;stroke-width:0.353677;image-rendering:auto"
       id="path426"
       cx="8.54461"
       cy="8.3920317"
       rx="8.4666309"
       ry="8.4667025"
       transform="matrix(0.99996148,0.00877666,-0.00924876,0.99995723,0,0)" />
    <path
       d="m 2.7770879,5.0992417 v 3.367425 c 0,1.1154591 0.9049958,2.0204543 2.0204551,2.0204543 1.115459,0 2.020454,-0.9049952 2.020454,-2.0204543 H 5.1342849 c -0.1852078,0 -0.3367419,-0.1515342 -0.3367419,-0.3367428 0,-0.1852084 0.1515341,-0.3367426 0.3367419,-0.3367426 H 6.817997 V 7.1196961 H 5.1342849 c -0.1852078,0 -0.3367419,-0.1515342 -0.3367419,-0.3367419 0,-0.1852085 0.1515341,-0.3367426 0.3367419,-0.3367426 H 6.817997 V 5.7727263 H 5.1342849 c -0.1852078,0 -0.3367419,-0.1515341 -0.3367419,-0.3367419 0,-0.1852086 0.1515341,-0.3367427 0.3367419,-0.3367427 H 6.817997 c 0,-1.1154592 -0.904995,-2.020455 -2.020454,-2.020455 -1.1154593,0 -2.0204551,0.9049958 -2.0204551,2.020455 z m 4.714394,3.0306822 v 0.3367428 c 0,1.4879809 -1.2059583,2.6939393 -2.6939389,2.6939393 -1.487981,0 -2.6939403,-1.2059584 -2.6939403,-2.6939393 V 7.6248101 c 0,-0.279917 -0.2251963,-0.505114 -0.5051134,-0.505114 -0.2799174,0 -0.5051138,0.225197 -0.5051138,0.505114 v 0.8418566 c 0,1.8752343 1.3932718,3.4242493 3.1990536,3.6704923 v 0.707158 H 3.2822019 c -0.2799176,0 -0.505114,0.225196 -0.505114,0.505115 0,0.279916 0.2251964,0.505113 0.505114,0.505113 H 4.797543 6.312884 c 0.2799169,0 0.505113,-0.225197 0.505113,-0.505113 0,-0.279919 -0.2251961,-0.505115 -0.505113,-0.505115 H 5.3026563 V 12.137159 C 7.1084375,11.890916 8.5017088,10.341901 8.5017088,8.4666667 V 7.6248101 c 0,-0.279917 -0.2251952,-0.505114 -0.5051129,-0.505114 -0.2799188,0 -0.505114,0.225197 -0.505114,0.505114 z"
       id="path2652"
       style="fill:#ffffff;fill-opacity:1;stroke-width:0.0210465" />
    <text
       xml:space="preserve"
       style="font-size:3.175px;fill:#ffffff;fill-opacity:1;stroke-width:1.2"
       x="8.6720552"
       y="13.009025"
       id="text3380"><tspan
         id="tspan3378"
         style="font-style:normal;font-variant:normal;font-weight:normal;font-stretch:condensed;font-size:12.7px;font-family:Arial;-inkscape-font-specification:'Arial, Condensed';font-variant-ligatures:normal;font-variant-caps:normal;font-variant-numeric:normal;font-variant-east-asian:normal;stroke-width:1.2"
         x="8.6720552"
         y="13.009025">S</tspan></text>
  </g>
</svg>
